<svg width="1906" height="1066" viewBox="0 0 1906 1066" fill="none" xmlns="http://www.w3.org/2000/svg">
    <g opacity="0.4">
        <line x1="509.238" y1="-5.43972" x2="1915.24" y2="755.56" stroke="white"/>
        <line x1="667.097" y1="517.51" x2="1868.1" y2="755.51" stroke="white"/>
        <line x1="1045.97" y1="808.501" x2="1867.97" y2="755.501" stroke="white"/>
        <path d="M1330.5 160.5C1330.5 205.805 1295.11 242.5 1251.5 242.5C1207.89 242.5 1172.5 205.805 1172.5 160.5C1172.5 115.195 1207.89 78.5 1251.5 78.5C1295.11 78.5 1330.5 115.195 1330.5 160.5Z"
              stroke="white"/>
        <path d="M1254.5 236.5C1254.5 266.893 1230.75 291.5 1201.5 291.5C1172.25 291.5 1148.5 266.893 1148.5 236.5C1148.5 206.107 1172.25 181.5 1201.5 181.5C1230.75 181.5 1254.5 206.107 1254.5 236.5Z"
              stroke="white"/>
        <path d="M290.5 543.5C290.5 573.893 266.754 598.5 237.5 598.5C208.246 598.5 184.5 573.893 184.5 543.5C184.5 513.107 208.246 488.5 237.5 488.5C266.754 488.5 290.5 513.107 290.5 543.5Z"
              stroke="white"/>
        <path d="M404.5 990.5C404.5 1061.21 349.191 1118.5 281 1118.5C212.809 1118.5 157.5 1061.21 157.5 990.5C157.5 919.791 212.809 862.5 281 862.5C349.191 862.5 404.5 919.791 404.5 990.5Z"
              stroke="white"/>
        <path d="M673.5 467.5C673.5 538.209 618.191 595.5 550 595.5C481.809 595.5 426.5 538.209 426.5 467.5C426.5 396.791 481.809 339.5 550 339.5C618.191 339.5 673.5 396.791 673.5 467.5Z"
              stroke="white"/>
        <path d="M1147.5 808.5C1147.5 866.506 1102.04 913.5 1046 913.5C989.959 913.5 944.5 866.506 944.5 808.5C944.5 750.494 989.959 703.5 1046 703.5C1102.04 703.5 1147.5 750.494 1147.5 808.5Z"
              fill="#090808" stroke="white"/>
        <path d="M2483.5 756C2483.5 1107.55 2207.92 1392.5 1868 1392.5C1528.08 1392.5 1252.5 1107.55 1252.5 756C1252.5 404.455 1528.08 119.5 1868 119.5C2207.92 119.5 2483.5 404.455 2483.5 756Z"
              fill="#090808" stroke="white"/>
        <path d="M313.5 772C313.5 928.59 191.033 1055.5 40 1055.5C-111.033 1055.5 -233.5 928.59 -233.5 772C-233.5 615.41 -111.033 488.5 40 488.5C191.033 488.5 313.5 615.41 313.5 772Z"
              stroke="white"/>
        <path d="M660.5 -26C660.5 60.4495 592.878 130.5 509.5 130.5C426.122 130.5 358.5 60.4495 358.5 -26C358.5 -112.45 426.122 -182.5 509.5 -182.5C592.878 -182.5 660.5 -112.45 660.5 -26Z"
              fill="#0D0C0C" stroke="white"/>
        <path d="M487.539 145C487.539 201.073 443.638 246.5 389.52 246.5C335.401 246.5 291.5 201.073 291.5 145C291.5 88.9266 335.401 43.5 389.52 43.5C443.638 43.5 487.539 88.9266 487.539 145Z"
              stroke="white"/>
        <path d="M1679.5 1160C1679.5 1288.42 1579.42 1392.5 1456 1392.5C1332.58 1392.5 1232.5 1288.42 1232.5 1160C1232.5 1031.58 1332.58 927.5 1456 927.5C1579.42 927.5 1679.5 1031.58 1679.5 1160Z"
              stroke="white"/>
    </g>
</svg>
