<svg width="5623" height="4939" viewBox="0 0 5623 4939" fill="none" xmlns="http://www.w3.org/2000/svg">
<g opacity="0.4">
<line x1="1389.24" y1="1674.56" x2="2795.24" y2="2435.56" stroke="white"/>
<line x1="2310.47" y1="1320.82" x2="2748.47" y2="2435.82" stroke="white"/>
<line x1="3151.46" y1="1439.19" x2="2751.46" y2="2436.19" stroke="white"/>
<line x1="4067.18" y1="1937.47" x2="2751.18" y2="2436.47" stroke="white"/>
<path d="M2731.5 2412.5L3931.5 3812" stroke="white"/>
<line x1="3444.39" y1="2669.68" x2="3768.39" y2="3061.68" stroke="white"/>
<path d="M4307.5 1680L4729 1886" stroke="white"/>
<path d="M3844 1132L4287.5 1692" stroke="white"/>
<path d="M3555 676L4352 433" stroke="white"/>
<line x1="2132.35" y1="1839.64" x2="2748.35" y2="2435.64" stroke="white"/>
<line x1="1547.1" y1="2197.51" x2="2748.1" y2="2435.51" stroke="white"/>
<path d="M1823.67 3240.62L2747.67 2435.62" stroke="white"/>
<path d="M2916 3754L2748 2436" stroke="white"/>
<path d="M3047 3169L2751 2436" stroke="white"/>
<path d="M1580 3380L1978 3435" stroke="white"/>
<path d="M2310 2820.5L2479.5 3332" stroke="white"/>
<path d="M1014 3169L1580 3380" stroke="white"/>
<path d="M646.001 4041L1864 4229" stroke="white"/>
<line x1="1925.97" y1="2488.5" x2="2747.97" y2="2435.5" stroke="white"/>
<ellipse cx="2336" cy="2840" rx="224" ry="233" fill="#090808"/>
<path d="M2210.5 1840.5C2210.5 1885.8 2175.11 1922.5 2131.5 1922.5C2087.89 1922.5 2052.5 1885.8 2052.5 1840.5C2052.5 1795.2 2087.89 1758.5 2131.5 1758.5C2175.11 1758.5 2210.5 1795.2 2210.5 1840.5Z" fill="#090808" stroke="white"/>
<path d="M3344.95 1897.39L2729.5 2470" stroke="white"/>
<path d="M3338.22 1975.25C3293.04 1971.85 3259.11 1933.8 3262.39 1890.31C3265.66 1846.82 3304.92 1814.29 3350.09 1817.7C3395.27 1821.11 3429.2 1859.15 3425.92 1902.64C3422.64 1946.13 3383.39 1978.66 3338.22 1975.25Z" fill="#090808" stroke="white"/>
<path d="M2536.5 1321C2536.5 1451.08 2434.85 1556.5 2309.5 1556.5C2184.15 1556.5 2082.5 1451.08 2082.5 1321C2082.5 1190.92 2184.15 1085.5 2309.5 1085.5C2434.85 1085.5 2536.5 1190.92 2536.5 1321Z" fill="#090808" stroke="white"/>
<path d="M2134.5 1916.5C2134.5 1946.89 2110.75 1971.5 2081.5 1971.5C2052.25 1971.5 2028.5 1946.89 2028.5 1916.5C2028.5 1886.11 2052.25 1861.5 2081.5 1861.5C2110.75 1861.5 2134.5 1886.11 2134.5 1916.5Z" stroke="white"/>
<path d="M1170.5 2223.5C1170.5 2253.89 1146.75 2278.5 1117.5 2278.5C1088.25 2278.5 1064.5 2253.89 1064.5 2223.5C1064.5 2193.11 1088.25 2168.5 1117.5 2168.5C1146.75 2168.5 1170.5 2193.11 1170.5 2223.5Z" stroke="white"/>
<path d="M1284.5 2670.5C1284.5 2741.21 1229.19 2798.5 1161 2798.5C1092.81 2798.5 1037.5 2741.21 1037.5 2670.5C1037.5 2599.79 1092.81 2542.5 1161 2542.5C1229.19 2542.5 1284.5 2599.79 1284.5 2670.5Z" stroke="white"/>
<path d="M2750.5 4389.5C2750.5 4460.21 2695.19 4517.5 2627 4517.5C2558.81 4517.5 2503.5 4460.21 2503.5 4389.5C2503.5 4318.79 2558.81 4261.5 2627 4261.5C2695.19 4261.5 2750.5 4318.79 2750.5 4389.5Z" stroke="white"/>
<path d="M3443.5 4709C3443.5 4835.77 3344.31 4938.5 3222 4938.5C3099.69 4938.5 3000.5 4835.77 3000.5 4709C3000.5 4582.23 3099.69 4479.5 3222 4479.5C3344.31 4479.5 3443.5 4582.23 3443.5 4709Z" stroke="white"/>
<path d="M3537.5 4596C3537.5 4674.17 3476.37 4737.5 3401 4737.5C3325.63 4737.5 3264.5 4674.17 3264.5 4596C3264.5 4517.83 3325.63 4454.5 3401 4454.5C3476.37 4454.5 3537.5 4517.83 3537.5 4596Z" stroke="white"/>
<path d="M2217.5 4229C2217.5 4431.43 2059.22 4595.5 1864 4595.5C1668.78 4595.5 1510.5 4431.43 1510.5 4229C1510.5 4026.57 1668.78 3862.5 1864 3862.5C2059.22 3862.5 2217.5 4026.57 2217.5 4229Z" fill="#090808" stroke="white"/>
<path d="M2111.5 3915.5C2111.5 3972.4 2066.94 4018.5 2012 4018.5C1957.06 4018.5 1912.5 3972.4 1912.5 3915.5C1912.5 3858.6 1957.06 3812.5 2012 3812.5C2066.94 3812.5 2111.5 3858.6 2111.5 3915.5Z" stroke="white"/>
<path d="M1291.5 4040.5C1291.5 4409.44 1002.48 4708.5 646 4708.5C289.516 4708.5 0.500244 4409.44 0.500244 4040.5C0.500244 3671.56 289.516 3372.5 646 3372.5C1002.48 3372.5 1291.5 3671.56 1291.5 4040.5Z" fill="#090808" stroke="white"/>
<path d="M1670.5 2198.5C1670.5 2269.21 1615.19 2326.5 1547 2326.5C1478.81 2326.5 1423.5 2269.21 1423.5 2198.5C1423.5 2127.79 1478.81 2070.5 1547 2070.5C1615.19 2070.5 1670.5 2127.79 1670.5 2198.5Z" fill="#090808" stroke="white"/>
<path d="M2027.5 2488.5C2027.5 2546.51 1982.04 2593.5 1926 2593.5C1869.96 2593.5 1824.5 2546.51 1824.5 2488.5C1824.5 2430.49 1869.96 2383.5 1926 2383.5C1982.04 2383.5 2027.5 2430.49 2027.5 2488.5Z" fill="#090808" stroke="white"/>
<path d="M3537.5 4073.5C3537.5 4127.09 3495.4 4170.5 3443.5 4170.5C3391.6 4170.5 3349.5 4127.09 3349.5 4073.5C3349.5 4019.91 3391.6 3976.5 3443.5 3976.5C3495.4 3976.5 3537.5 4019.91 3537.5 4073.5Z" fill="#090808" stroke="white"/>
<path d="M4176.5 3340.5C4176.5 3376.97 4147.83 3406.5 4112.5 3406.5C4077.17 3406.5 4048.5 3376.97 4048.5 3340.5C4048.5 3304.03 4077.17 3274.5 4112.5 3274.5C4147.83 3274.5 4176.5 3304.03 4176.5 3340.5Z" fill="#090808" stroke="white"/>
<path d="M3855.5 3062.5C3855.5 3116.09 3813.4 3159.5 3761.5 3159.5C3709.6 3159.5 3667.5 3116.09 3667.5 3062.5C3667.5 3008.91 3709.6 2965.5 3761.5 2965.5C3813.4 2965.5 3855.5 3008.91 3855.5 3062.5Z" fill="#090808" stroke="white"/>
<path d="M3363.5 2436C3363.5 2787.55 3087.92 3072.5 2748 3072.5C2408.08 3072.5 2132.5 2787.55 2132.5 2436C2132.5 2084.45 2408.08 1799.5 2748 1799.5C3087.92 1799.5 3363.5 2084.45 3363.5 2436Z" fill="#090808" stroke="white"/>
<path d="M1852.5 3380.5C1852.5 3536.26 1730.26 3662.5 1579.5 3662.5C1428.74 3662.5 1306.5 3536.26 1306.5 3380.5C1306.5 3224.74 1428.74 3098.5 1579.5 3098.5C1730.26 3098.5 1852.5 3224.74 1852.5 3380.5Z" fill="#090808" stroke="white"/>
<path d="M3150.5 3765C3150.5 3905.02 3040.57 4018.5 2905 4018.5C2769.43 4018.5 2659.5 3905.02 2659.5 3765C2659.5 3624.98 2769.43 3511.5 2905 3511.5C3040.57 3511.5 3150.5 3624.98 3150.5 3765Z" fill="#090808" stroke="white"/>
<path d="M4566.5 1675C4566.5 1833.25 4442.91 1961.5 4290.5 1961.5C4138.09 1961.5 4014.5 1833.25 4014.5 1675C4014.5 1516.75 4138.09 1388.5 4290.5 1388.5C4442.91 1388.5 4566.5 1516.75 4566.5 1675Z" fill="#090808" stroke="white"/>
<path d="M3977.5 1132.5C3977.5 1214.81 3913.24 1281.5 3834 1281.5C3754.76 1281.5 3690.5 1214.81 3690.5 1132.5C3690.5 1050.19 3754.76 983.5 3834 983.5C3913.24 983.5 3977.5 1050.19 3977.5 1132.5Z" fill="#090808" stroke="white"/>
<path d="M3036.5 2198.5C3036.5 2269.21 2981.19 2326.5 2913 2326.5C2844.81 2326.5 2789.5 2269.21 2789.5 2198.5C2789.5 2127.79 2844.81 2070.5 2913 2070.5C2981.19 2070.5 3036.5 2127.79 3036.5 2198.5Z" stroke="white"/>
<path d="M1778.5 903C1778.5 1031.42 1677.97 1135.5 1554 1135.5C1430.03 1135.5 1329.5 1031.42 1329.5 903C1329.5 774.577 1430.03 670.5 1554 670.5C1677.97 670.5 1778.5 774.577 1778.5 903Z" stroke="white"/>
<path d="M4771.5 438.5C4771.5 680.417 4582.1 876.5 4348.5 876.5C4114.9 876.5 3925.5 680.417 3925.5 438.5C3925.5 196.583 4114.9 0.5 4348.5 0.5C4582.1 0.5 4771.5 196.583 4771.5 438.5Z" fill="#090808" stroke="white"/>
<path d="M3691.5 678.5C3691.5 749.209 3636.19 806.5 3568 806.5C3499.81 806.5 3444.5 749.209 3444.5 678.5C3444.5 607.791 3499.81 550.5 3568 550.5C3636.19 550.5 3691.5 607.791 3691.5 678.5Z" fill="#090808" stroke="white"/>
<path d="M3689.5 2670C3689.5 2810.02 3579.57 2923.5 3444 2923.5C3308.43 2923.5 3198.5 2810.02 3198.5 2670C3198.5 2529.98 3308.43 2416.5 3444 2416.5C3579.57 2416.5 3689.5 2529.98 3689.5 2670Z" fill="#090808" stroke="white"/>
<path d="M2747.5 3813.5C2747.5 3883.1 2692.86 3939.5 2625.5 3939.5C2558.14 3939.5 2503.5 3883.1 2503.5 3813.5C2503.5 3743.9 2558.14 3687.5 2625.5 3687.5C2692.86 3687.5 2747.5 3743.9 2747.5 3813.5Z" fill="#090808" stroke="white"/>
<path d="M3109.5 3184C3109.5 3215.22 3085.08 3240.5 3055 3240.5C3024.92 3240.5 3000.5 3215.22 3000.5 3184C3000.5 3152.78 3024.92 3127.5 3055 3127.5C3085.08 3127.5 3109.5 3152.78 3109.5 3184Z" fill="#090808" stroke="white"/>
<path d="M1717.5 3073.5C1717.5 3132.61 1671.15 3180.5 1614 3180.5C1556.85 3180.5 1510.5 3132.61 1510.5 3073.5C1510.5 3014.39 1556.85 2966.5 1614 2966.5C1671.15 2966.5 1717.5 3014.39 1717.5 3073.5Z" stroke="white"/>
<path d="M1117.5 3169.5C1117.5 3228.61 1071.15 3276.5 1014 3276.5C956.854 3276.5 910.5 3228.61 910.5 3169.5C910.5 3110.39 956.854 3062.5 1014 3062.5C1071.15 3062.5 1117.5 3110.39 1117.5 3169.5Z" fill="#090808" stroke="white"/>
<path d="M1747.5 2739.5C1747.5 2777.63 1717.71 2808.5 1681 2808.5C1644.29 2808.5 1614.5 2777.63 1614.5 2739.5C1614.5 2701.37 1644.29 2670.5 1681 2670.5C1717.71 2670.5 1747.5 2701.37 1747.5 2739.5Z" stroke="white"/>
<path d="M2051.5 3441.5C2051.5 3479.63 2021.71 3510.5 1985 3510.5C1948.29 3510.5 1918.5 3479.63 1918.5 3441.5C1918.5 3403.37 1948.29 3372.5 1985 3372.5C2021.71 3372.5 2051.5 3403.37 2051.5 3441.5Z" fill="#090808" stroke="white"/>
<path d="M4802.5 1892.5C4802.5 1930.63 4772.71 1961.5 4736 1961.5C4699.29 1961.5 4669.5 1930.63 4669.5 1892.5C4669.5 1854.37 4699.29 1823.5 4736 1823.5C4772.71 1823.5 4802.5 1854.37 4802.5 1892.5Z" fill="#090808" stroke="white"/>
<path d="M4553.84 985.502C4497.99 1046.8 4404.61 1052.62 4345.27 998.554C4285.93 944.487 4283.07 850.969 4338.92 789.673C4394.77 728.376 4488.15 722.554 4547.49 776.621C4606.83 830.688 4609.69 924.206 4553.84 985.502Z" stroke="white"/>
<path d="M1705.44 749.987C1665.19 794.16 1598.35 798.743 1556.15 760.29C1513.95 721.837 1512.31 654.858 1552.56 610.684C1592.81 566.511 1659.65 561.928 1701.85 600.381C1744.05 638.835 1745.69 705.814 1705.44 749.987Z" stroke="white"/>
<path d="M4561.29 2768.63C4451.56 2889.05 4269.29 2901.59 4154.17 2796.7C4039.05 2691.8 4034.63 2509.15 4144.36 2388.73C4254.09 2268.3 4436.37 2255.76 4551.48 2360.66C4666.6 2465.55 4671.02 2648.2 4561.29 2768.63Z" stroke="white"/>
<path d="M5453.42 2557.31C5372.01 2646.67 5236.77 2655.96 5151.37 2578.14C5065.97 2500.33 5062.68 2364.81 5144.1 2275.46C5225.51 2186.11 5360.75 2176.82 5446.15 2254.63C5531.55 2332.45 5534.84 2467.96 5453.42 2557.31Z" stroke="white"/>
<path d="M4411.02 4258.88C4261.06 4423.45 4011.95 4440.6 3854.62 4297.23C3697.28 4153.87 3691.25 3904.24 3841.2 3739.67C3991.16 3575.09 4240.28 3557.95 4397.61 3701.31C4554.95 3844.67 4560.98 4094.3 4411.02 4258.88Z" fill="#090808" stroke="white"/>
<path d="M4743.13 4108.42C4645.55 4215.51 4483.46 4226.66 4381.09 4133.38C4278.72 4040.11 4274.79 3877.68 4372.37 3770.59C4469.95 3663.49 4632.04 3652.35 4734.41 3745.62C4836.78 3838.9 4840.71 4001.33 4743.13 4108.42Z" stroke="white"/>
<path d="M5030.66 3301.84C4969.69 3368.75 4868.44 3375.7 4804.5 3317.44C4740.57 3259.18 4738.1 3157.72 4799.06 3090.82C4860.02 3023.91 4961.28 3016.96 5025.21 3075.22C5089.15 3133.48 5091.62 3234.94 5030.66 3301.84Z" stroke="white"/>
<path d="M4388.58 2921.49C4332.09 2983.49 4238.26 2989.93 4179.01 2935.95C4119.76 2881.96 4117.48 2787.94 4173.97 2725.94C4230.46 2663.94 4324.29 2657.5 4383.54 2711.48C4442.79 2765.47 4445.08 2859.49 4388.58 2921.49Z" stroke="white"/>
<path d="M4991.2 1380.77C4935.1 1227.81 5008.21 1060.37 5154.42 1006.75C5300.64 953.124 5464.67 1033.6 5520.76 1186.56C5576.86 1339.52 5503.75 1506.96 5357.53 1560.58C5211.32 1614.2 5047.29 1533.73 4991.2 1380.77Z" stroke="white"/>
<path d="M5065.16 981.397C5036.28 902.648 5073.92 816.459 5149.17 788.86C5224.43 761.262 5308.87 802.679 5337.75 881.428C5366.63 960.178 5328.99 1046.37 5253.73 1073.96C5178.48 1101.56 5094.04 1060.15 5065.16 981.397Z" stroke="white"/>
<path d="M2595.5 3326C2595.5 3400.3 2537.5 3460.5 2466 3460.5C2394.5 3460.5 2336.5 3400.3 2336.5 3326C2336.5 3251.7 2394.5 3191.5 2466 3191.5C2537.5 3191.5 2595.5 3251.7 2595.5 3326Z" fill="090808" stroke="white"/>
<path d="M1193.5 2452C1193.5 2608.59 1071.03 2735.5 920.001 2735.5C768.968 2735.5 646.501 2608.59 646.501 2452C646.501 2295.41 768.968 2168.5 920.001 2168.5C1071.03 2168.5 1193.5 2295.41 1193.5 2452Z" stroke="white"/>
<path d="M1540.5 1654C1540.5 1740.45 1472.88 1810.5 1389.5 1810.5C1306.12 1810.5 1238.5 1740.45 1238.5 1654C1238.5 1567.55 1306.12 1497.5 1389.5 1497.5C1472.88 1497.5 1540.5 1567.55 1540.5 1654Z" fill="#090808" stroke="white"/>
<path d="M3743.5 2594C3743.5 2624.66 3719.31 2649.5 3689.5 2649.5C3659.69 2649.5 3635.5 2624.66 3635.5 2594C3635.5 2563.34 3659.69 2538.5 3689.5 2538.5C3719.31 2538.5 3743.5 2563.34 3743.5 2594Z" fill="#090808" stroke="white"/>
<path d="M3820.5 2337C3820.5 2380.37 3786.24 2415.5 3744 2415.5C3701.76 2415.5 3667.5 2380.37 3667.5 2337C3667.5 2293.63 3701.76 2258.5 3744 2258.5C3786.24 2258.5 3820.5 2293.63 3820.5 2337Z" stroke="white"/>
<path d="M4207.5 1944C4207.5 2023.82 4144.36 2088.5 4066.5 2088.5C3988.64 2088.5 3925.5 2023.82 3925.5 1944C3925.5 1864.18 3988.64 1799.5 4066.5 1799.5C4144.36 1799.5 4207.5 1864.18 4207.5 1944Z" fill="#090808" stroke="white"/>
<path d="M3301.5 1439C3301.5 1525.45 3233.88 1595.5 3150.5 1595.5C3067.12 1595.5 2999.5 1525.45 2999.5 1439C2999.5 1352.55 3067.12 1282.5 3150.5 1282.5C3233.88 1282.5 3301.5 1352.55 3301.5 1439Z" fill="#090808" stroke="white"/>
<path d="M1367.54 1825C1367.54 1881.07 1323.64 1926.5 1269.52 1926.5C1215.4 1926.5 1171.5 1881.07 1171.5 1825C1171.5 1768.93 1215.4 1723.5 1269.52 1723.5C1323.64 1723.5 1367.54 1768.93 1367.54 1825Z" stroke="white"/>
<path d="M2855.54 909C2855.54 965.073 2811.64 1010.5 2757.52 1010.5C2703.4 1010.5 2659.5 965.073 2659.5 909C2659.5 852.927 2703.4 807.5 2757.52 807.5C2811.64 807.5 2855.54 852.927 2855.54 909Z" stroke="white"/>
<path d="M3368.5 1415.5C3368.5 1453.63 3338.71 1484.5 3302 1484.5C3265.29 1484.5 3235.5 1453.63 3235.5 1415.5C3235.5 1377.37 3265.29 1346.5 3302 1346.5C3338.71 1346.5 3368.5 1377.37 3368.5 1415.5Z" stroke="white"/>
<path d="M2850.5 1770.5C2850.5 1808.63 2820.71 1839.5 2784 1839.5C2747.29 1839.5 2717.5 1808.63 2717.5 1770.5C2717.5 1732.37 2747.29 1701.5 2784 1701.5C2820.71 1701.5 2850.5 1732.37 2850.5 1770.5Z" stroke="white"/>
<path d="M3163.5 725.5C3163.5 844.258 3070.58 940.5 2956 940.5C2841.42 940.5 2748.5 844.258 2748.5 725.5C2748.5 606.742 2841.42 510.5 2956 510.5C3070.58 510.5 3163.5 606.742 3163.5 725.5Z" stroke="white"/>
<path d="M2559.5 2840C2559.5 2968.42 2459.42 3072.5 2336 3072.5C2212.58 3072.5 2112.5 2968.42 2112.5 2840C2112.5 2711.58 2212.58 2607.5 2336 2607.5C2459.42 2607.5 2559.5 2711.58 2559.5 2840Z" stroke="white"/>
<path d="M776.131 1409.42C678.549 1516.51 516.456 1527.66 414.088 1434.38C311.72 1341.11 307.786 1178.68 405.368 1071.59C502.949 964.494 665.042 953.347 767.41 1046.62C869.778 1139.9 873.712 1302.33 776.131 1409.42Z" stroke="white"/>
</g>
</svg>
